Marcel.ufo
<glyph name="exclam" format="1">
  <advance width="465"/>
  <unicode hex="0021"/>
  <outline>
    <contour>
      <point x="190" y="231" type="line" smooth="no"/>
      <point x="170" y="691" type="line" smooth="no"/>
      <point x="298" y="691" type="line" smooth="no"/>
      <point x="278" y="231" type="line" smooth="no"/>
    </contour>
    <contour>
      <point x="228.788" y="118" type="line" smooth="no"/>
      <point x="333.439" y="13.3477" type="line" smooth="no"/>
      <point x="230.202" y="-89.8896" type="line" smooth="no"/>
      <point x="125.55" y="14.7627" type="line" smooth="no"/>
    </contour>
  </outline>
</glyph>
<glyph name="period" format="1">
  <advance width="465"/>
  <unicode hex="002e"/>
  <outline>
    <contour>
      <point x="228.788" y="118" type="line" smooth="no"/>
      <point x="333.439" y="13.3477" type="line" smooth="no"/>
      <point x="230.202" y="-89.8896" type="line" smooth="no"/>
      <point x="125.55" y="14.7627" type="line" smooth="no"/>
    </contour>
  </outline>
</glyph>
<glyph name="zero" format="1">
  <advance width="1000"/>
  <unicode hex="0030"/>
  <outline>
    <contour>
      <point x="155" y="345" type="curve" smooth="yes"/>
      <point x="155" y="535.439"/>
      <point x="309.561" y="690"/>
      <point x="500" y="690" type="curve" smooth="yes"/>
      <point x="599.172" y="690"/>
      <point x="688.613" y="648.086"/>
      <point x="751.565" y="581.018" type="curve" smooth="no"/>
      <point x="790.518" y="619.97" type="line" smooth="no"/>
      <point x="804.66" y="605.827" type="line" smooth="no"/>
      <point x="764.852" y="566.019" type="line" smooth="no"/>
      <point x="814.881" y="506.144"/>
      <point x="845" y="429.067"/>
      <point x="845" y="345" type="curve" smooth="yes"/>
      <point x="845" y="154.561"/>
      <point x="690.439" y="0"/>
      <point x="500" y="0" type="curve" smooth="yes"/>
      <point x="415.933" y="0"/>
      <point x="338.855" y="30.1191"/>
      <point x="278.98" y="80.1484" type="curve" smooth="no"/>
      <point x="224.832" y="26" type="line" smooth="no"/>
      <point x="210.691" y="40.1416" type="line" smooth="no"/>
      <point x="263.983" y="93.4336" type="line" smooth="no"/>
      <point x="196.914" y="156.386"/>
      <point x="155" y="245.828"/>
    </contour>
    <contour>
      <point x="337.434" y="166.884" type="curve" smooth="no"/>
      <point x="669.227" y="498.679" type="line" smooth="no"/>
      <point x="635.408" y="592.559"/>
      <point x="572.265" y="655.749"/>
      <point x="500" y="655.749" type="curve" smooth="yes"/>
      <point x="392.115" y="655.749"/>
      <point x="304.559" y="514.91"/>
      <point x="304.559" y="341.375" type="curve" smooth="yes"/>
      <point x="304.559" y="276.834"/>
      <point x="316.67" y="216.816"/>
    </contour>
    <contour>
      <point x="346.226" y="147.394" type="line" smooth="no"/>
      <point x="382.017" y="74.1035"/>
      <point x="437.608" y="27"/>
      <point x="500" y="27" type="curve" smooth="yes"/>
      <point x="607.885" y="27"/>
      <point x="695.441" y="167.839"/>
      <point x="695.441" y="341.375" type="curve" smooth="yes"/>
      <point x="695.441" y="390.09"/>
      <point x="688.541" y="436.228"/>
      <point x="676.229" y="477.396" type="curve" smooth="no"/>
    </contour>
  </outline>
</glyph>
<glyph name="one" format="1">
  <advance width="1000"/>
  <unicode hex="0031"/>
  <outline>
    <contour>
      <point x="336" y="632" type="line" smooth="no"/>
      <point x="337" y="690" type="line" smooth="no"/>
      <point x="580" y="690" type="line" smooth="no"/>
      <point x="580" y="26" type="line" smooth="no"/>
      <point x="719" y="26" type="line" smooth="no"/>
      <point x="719" y="0" type="line" smooth="no"/>
      <point x="293" y="0" type="line" smooth="no"/>
      <point x="293" y="26" type="line" smooth="no"/>
      <point x="432" y="26" type="line" smooth="no"/>
      <point x="432" y="664.216" type="line" smooth="no"/>
    </contour>
  </outline>
</glyph>
<glyph name="two" format="1">
  <advance width="970"/>
  <unicode hex="0032"/>
  <outline>
    <contour>
      <point x="246" y="26" type="curve" smooth="no"/>
      <point x="246" y="26"/>
      <point x="278.024" y="27.2402"/>
      <point x="278" y="60.9102" type="curve" smooth="no"/>
      <point x="467.219" y="60.3994"/>
      <point x="552.776" y="59.7803"/>
      <point x="742" y="60" type="curve" smooth="no"/>
      <point x="742" y="26" type="line" smooth="no"/>
      <point x="573.445" y="25.3896"/>
      <point x="414.557" y="25.3984"/>
    </contour>
    <contour>
      <point x="478" y="278.91" type="line" smooth="no"/>
      <point x="287.558" y="279.682"/>
      <point x="150.577" y="341.628"/>
      <point x="158.442" y="491" type="curve" smooth="yes"/>
      <point x="166.544" y="644.854"/>
      <point x="309.21" y="689.499"/>
      <point x="499.65" y="690.086" type="curve" smooth="yes"/>
      <point x="764" y="690.9" type="line" smooth="no"/>
      <point x="768" y="664.91" type="line" smooth="no"/>
      <point x="322" y="26" type="line" smooth="no"/>
      <point x="200" y="26" type="line" smooth="no"/>
      <point x="201.183" y="58.91" type="line" smooth="no"/>
      <point x="645" y="662.9" type="line" smooth="no"/>
      <point x="499.65" y="664.086" type="line" smooth="no"/>
      <point x="499.65" y="663.086" type="line" smooth="no"/>
      <point x="391.766" y="663.086"/>
      <point x="308" y="632.375"/>
      <point x="308.001" y="491" type="curve" smooth="yes"/>
      <point x="308.001" y="349.625"/>
      <point x="370.115" y="304.525"/>
      <point x="478" y="304.525" type="curve" smooth="no"/>
    </contour>
  </outline>
</glyph>
<glyph name="three" format="1">
  <advance width="1000"/>
  <unicode hex="0033"/>
  <outline>
    <contour>
      <point x="167" y="26" type="line" smooth="no"/>
      <point x="462.675" y="26" type="line" smooth="no"/>
      <point x="462.675" y="27" type="line" smooth="no"/>
      <point x="570.56" y="27"/>
      <point x="658.116" y="70"/>
      <point x="658.116" y="211.375" type="curve" smooth="yes"/>
      <point x="658.116" y="350"/>
      <point x="570.56" y="395.749"/>
      <point x="462.675" y="395.749" type="curve" smooth="yes"/>
      <point x="340" y="395.749" type="line" smooth="no"/>
      <point x="340" y="430.975" type="line" smooth="yes"/>
      <point x="397.352" y="431.452" type="line" smooth="no"/>
      <point x="479.168" y="431.452"/>
      <point x="545.569" y="460.961"/>
      <point x="545.569" y="543.864" type="curve" smooth="yes"/>
      <point x="545.569" y="626.766"/>
      <point x="479.168" y="656.275"/>
      <point x="397.352" y="656.275" type="curve" smooth="yes"/>
      <point x="339.564" y="656.275" type="line" smooth="no"/>
      <point x="339.564" y="617" type="line" smooth="no"/>
      <point x="192.125" y="617" type="line" smooth="no"/>
      <point x="192.222" y="662.948"/>
      <point x="192.349" y="656.416"/>
      <point x="192.325" y="690.086" type="curve" smooth="no"/>
      <point x="397.352" y="690.086" type="line" smooth="yes"/>
      <point x="541.775" y="690.086"/>
      <point x="658.991" y="653.269"/>
      <point x="658.991" y="545.043" type="curve" smooth="yes"/>
      <point x="658.991" y="484.887"/>
      <point x="620" y="440"/>
      <point x="534" y="422.649" type="curve" smooth="no"/>
      <point x="696.044" y="400"/>
      <point x="807.675" y="327.541"/>
      <point x="807.675" y="215" type="curve" smooth="yes"/>
      <point x="807.675" y="60"/>
      <point x="653.114" y="0"/>
      <point x="462.675" y="0" type="curve" smooth="yes"/>
      <point x="167" y="0" type="line" smooth="no"/>
    </contour>
  </outline>
</glyph>
<glyph name="four" format="1">
  <advance width="823"/>
  <unicode hex="0034"/>
  <outline>
    <contour>
      <point x="478" y="-197.9" type="line" smooth="no"/>
      <point x="478" y="691" type="line" smooth="no"/>
      <point x="586" y="691" type="line" smooth="no"/>
      <point x="586" y="-198.9" type="line" smooth="no"/>
    </contour>
    <contour>
      <point x="585.999" y="689" type="line" smooth="no"/>
      <point x="243.068" y="27" type="line" smooth="no"/>
      <point x="722" y="27" type="line" smooth="no"/>
      <point x="722" y="0" type="line" smooth="no"/>
      <point x="86.207" y="0" type="line" smooth="no"/>
      <point x="451.499" y="689" type="line" smooth="no"/>
    </contour>
  </outline>
</glyph>
<glyph name="five" format="1">
  <advance width="1000"/>
  <unicode hex="0035"/>
  <outline>
    <contour>
      <point x="307.564" y="656.275" type="line" smooth="no"/>
      <point x="760" y="656.991" type="line" smooth="no"/>
      <point x="760" y="690.991" type="line" smooth="no"/>
      <point x="192.325" y="690.086" type="line" smooth="no"/>
      <point x="192.349" y="656.416"/>
      <point x="192.097" y="441.697"/>
      <point x="192" y="395.749" type="curve" smooth="no"/>
      <point x="462.675" y="395.749" type="line" smooth="yes"/>
      <point x="570.56" y="395.749"/>
      <point x="658.116" y="350"/>
      <point x="658.116" y="211.375" type="curve" smooth="yes"/>
      <point x="658.116" y="70"/>
      <point x="570.56" y="27"/>
      <point x="462.675" y="27" type="curve" smooth="no"/>
      <point x="462.675" y="26" type="line" smooth="no"/>
      <point x="190" y="26" type="line" smooth="no"/>
      <point x="190" y="0" type="line" smooth="no"/>
      <point x="462.675" y="0" type="line" smooth="yes"/>
      <point x="653.114" y="0"/>
      <point x="807.675" y="60"/>
      <point x="807.675" y="215" type="curve" smooth="yes"/>
      <point x="807.675" y="327.541"/>
      <point x="696.044" y="409"/>
      <point x="534" y="431.649" type="curve" smooth="no"/>
      <point x="308" y="428.991" type="line" smooth="no"/>
    </contour>
  </outline>
</glyph>
<glyph name="six" format="1">
  <advance width="1000"/>
  <unicode hex="0036"/>
  <outline>
    <contour>
      <point x="416" y="431.449" type="line" smooth="no"/>
      <point x="351.924" y="366.484"/>
      <point x="324.227" y="316.474"/>
      <point x="325.999" y="245.45" type="curve" smooth="no"/>
      <point x="325.999" y="131.45"/>
      <point x="358" y="53.3633"/>
      <point x="462.351" y="53.3633" type="curve" smooth="no"/>
      <point x="570.235" y="53.3633"/>
      <point x="654.001" y="84.0742"/>
      <point x="654" y="225.449" type="curve" smooth="yes"/>
      <point x="654" y="366.824"/>
      <point x="581.885" y="415.449"/>
      <point x="474" y="415.449" type="curve" smooth="no"/>
      <point x="356" y="415.449" type="line" smooth="no"/>
      <point x="376" y="439.102" type="line" smooth="no"/>
      <point x="458.559" y="438.924" type="line" smooth="yes"/>
      <point x="648.996" y="438.514"/>
      <point x="802.104" y="383.667"/>
      <point x="803.559" y="225.449" type="curve" smooth="yes"/>
      <point x="804.975" y="71.3896"/>
      <point x="652.791" y="26.8926"/>
      <point x="462.351" y="26.3633" type="curve" smooth="no"/>
      <point x="302.42" y="26.3311"/>
      <point x="181.81" y="85.4497"/>
      <point x="181.81" y="221.449" type="curve" smooth="no"/>
      <point x="181.81" y="307.45"/>
      <point x="251.615" y="385.153"/>
      <point x="352" y="481.449" type="curve" smooth="no"/>
      <point x="605.002" y="715.999" type="line" smooth="no"/>
      <point x="720.002" y="715.999" type="line" smooth="no"/>
    </contour>
  </outline>
</glyph>
<glyph name="seven" format="1">
  <advance width="1000"/>
  <unicode hex="0037"/>
  <outline>
    <contour>
      <point x="268" y="1" type="line" smooth="no"/>
      <point x="632.931" y="663" type="line" smooth="no"/>
      <point x="269.999" y="663" type="line" smooth="no"/>
      <point x="269.999" y="690" type="line" smooth="no"/>
      <point x="789.792" y="690" type="line" smooth="no"/>
      <point x="424.5" y="1" type="line" smooth="no"/>
    </contour>
  </outline>
</glyph>
<glyph name="eight" format="1">
  <advance width="1000"/>
  <unicode hex="0038"/>
  <outline>
    <contour>
      <point x="376" y="573" type="curve" smooth="no"/>
      <point x="376" y="637"/>
      <point x="404.711" y="681.609"/>
      <point x="495.801" y="682.029" type="curve" smooth="no"/>
      <point x="566" y="684.436"/>
      <point x="622.37" y="624.92"/>
      <point x="622.37" y="540.92" type="curve" smooth="no"/>
      <point x="624.09" y="491.773"/>
      <point x="592.276" y="438.161"/>
      <point x="494" y="394.92" type="curve" smooth="no"/>
      <point x="566" y="396.92" type="line" smooth="no"/>
      <point x="710" y="422.92"/>
      <point x="752" y="482.92"/>
      <point x="752" y="554.92" type="curve" smooth="no"/>
      <point x="749.779" y="644.709"/>
      <point x="634" y="710.8"/>
      <point x="495.801" y="710.8" type="curve" smooth="no"/>
      <point x="335.831" y="710.8"/>
      <point x="244" y="629"/>
      <point x="244" y="521" type="curve" smooth="no"/>
      <point x="244" y="281"/>
      <point x="636" y="273.245"/>
      <point x="636" y="157" type="curve" smooth="no"/>
      <point x="636" y="77"/>
      <point x="587.184" y="23.2772"/>
      <point x="496.8" y="22.6797" type="curve" smooth="no"/>
      <point x="418" y="26"/>
      <point x="363.285" y="76.3073"/>
      <point x="363.108" y="162.92" type="curve" smooth="no"/>
      <point x="363.393" y="206.409"/>
      <point x="397.727" y="255.043"/>
      <point x="452" y="300.92" type="curve" smooth="no"/>
      <point x="416" y="322.92" type="line" smooth="no"/>
      <point x="338" y="294.92"/>
      <point x="237.429" y="242.92"/>
      <point x="237.429" y="152.92" type="curve" smooth="no"/>
      <point x="237.429" y="43.5742"/>
      <point x="332" y="0"/>
      <point x="496.8" y="0" type="curve" smooth="no"/>
      <point x="656.788" y="0.0277995"/>
      <point x="774" y="88"/>
      <point x="774" y="196" type="curve" smooth="no"/>
      <point x="774" y="394"/>
      <point x="376.05" y="393.226"/>
    </contour>
  </outline>
</glyph>
<glyph name="nine" format="1">
  <advance width="1000"/>
  <unicode hex="0039"/>
  <outline>
    <contour>
      <point x="1179.78" y="341.5" type="curve" smooth="no"/>
      <point x="1179.78" y="547.5" type="line" smooth="no"/>
      <point x="1154.38" y="612.342"/>
      <point x="1104.31" y="655.025"/>
      <point x="1049.78" y="655.025" type="curve" smooth="yes"/>
      <point x="968.594" y="655.025"/>
      <point x="902.708" y="560.438"/>
      <point x="902.708" y="438.963" type="curve" smooth="yes"/>
      <point x="902.708" y="317.488"/>
      <point x="968.594" y="221.9"/>
      <point x="1049.78" y="221.9" type="curve" smooth="yes"/>
      <point x="1107.42" y="221.9"/>
      <point x="1155.67" y="270.082"/>
    </contour>
    <contour>
      <point x="1330" y="341.5" type="line" smooth="no"/>
      <point x="1329.47" y="199" type="line" smooth="no"/>
      <point x="1282.36" y="64.5195"/>
      <point x="1154.27" y="-32"/>
      <point x="1003.78" y="-32" type="curve" smooth="yes"/>
      <point x="754" y="-32" type="line" smooth="no"/>
      <point x="754" y="-6" type="line" smooth="no"/>
      <point x="1003.78" y="-6" type="line" smooth="yes"/>
      <point x="1087.52" y="-6"/>
      <point x="1152.01" y="79.8594"/>
      <point x="1179.82" y="199" type="curve" smooth="no"/>
      <point x="1180.07" y="235.922"/>
      <point x="1180.33" y="177.842"/>
      <point x="1180.58" y="214.762" type="curve" smooth="no"/>
      <point x="1142.99" y="202.072"/>
      <point x="1099.34" y="195"/>
      <point x="1049.78" y="195" type="curve" smooth="yes"/>
      <point x="851.482" y="195"/>
      <point x="747.902" y="308.193"/>
      <point x="747.902" y="441.5" type="curve" smooth="yes"/>
      <point x="747.902" y="574.809"/>
      <point x="851.482" y="688"/>
      <point x="1049.78" y="688" type="curve" smooth="yes"/>
      <point x="1192.09" y="688"/>
      <point x="1285.62" y="629.697"/>
      <point x="1327.08" y="547.5" type="curve" smooth="no"/>
    </contour>
    <contour>
      <point x="549.792" y="276.711" type="line" smooth="no"/>
      <point x="503.442" y="277.525" type="line" smooth="yes"/>
      <point x="313.006" y="279.041"/>
      <point x="159.897" y="332.782"/>
      <point x="158.442" y="491" type="curve" smooth="yes"/>
      <point x="157.026" y="645.06"/>
      <point x="309.21" y="689.558"/>
      <point x="499.65" y="690.086" type="curve" smooth="yes"/>
      <point x="793" y="690.9" type="line" smooth="no"/>
      <point x="577" y="-0.000976562" type="line" smooth="no"/>
      <point x="462" y="-0.000976562" type="line" smooth="no"/>
    </contour>
    <contour>
      <point x="555.792" y="304.711" type="line" smooth="no"/>
      <point x="675" y="662.9" type="line" smooth="no"/>
      <point x="499.65" y="664.086" type="line" smooth="no"/>
      <point x="499.65" y="663.086" type="line" smooth="no"/>
      <point x="391.766" y="663.086"/>
      <point x="308" y="632.375"/>
      <point x="308.001" y="491" type="curve" smooth="yes"/>
      <point x="308.001" y="349.625"/>
      <point x="395.558" y="304.525"/>
      <point x="503.442" y="304.525" type="curve" smooth="no"/>
      <point x="503.442" y="303.525" type="line" smooth="no"/>
    </contour>
  </outline>
</glyph>
<glyph name="A" format="1">
  <advance width="1000"/>
  <unicode hex="0041"/>
  <outline>
    <contour>
      <point x="152" y="2" type="line" smooth="no"/>
      <point x="10" y="2" type="line" smooth="no"/>
      <point x="228" y="689.999" type="line" smooth="no"/>
      <point x="229.584" y="689.999" type="line" smooth="no"/>
      <point x="370" y="689.999" type="line" smooth="no"/>
      <point x="371.584" y="689.999" type="line" smooth="no"/>
      <point x="589.584" y="2" type="line" smooth="no"/>
      <point x="447.584" y="2" type="line" smooth="no"/>
      <point x="402.692" y="222.605" type="line" smooth="no"/>
      <point x="199.125" y="221.509" type="line" smooth="no"/>
    </contour>
    <contour>
      <point x="396.666" y="249" type="line" smooth="no"/>
      <point x="303.792" y="655.749" type="line" smooth="no"/>
      <point x="205.751" y="249" type="line" smooth="no"/>
    </contour>
  </outline>
</glyph>
<glyph name="B" format="1">
  <advance width="1000"/>
  <unicode hex="0042"/>
  <outline>
    <contour>
      <point x="462.675" y="27" type="line" smooth="no"/>
      <point x="570.56" y="27"/>
      <point x="658.116" y="70"/>
      <point x="658.116" y="211.375" type="curve" smooth="yes"/>
      <point x="658.116" y="350"/>
      <point x="570.56" y="395.749"/>
      <point x="462.675" y="395.749" type="curve" smooth="yes"/>
      <point x="340.325" y="395.749" type="line" smooth="no"/>
      <point x="340.325" y="26" type="line" smooth="no"/>
      <point x="462.675" y="26" type="line" smooth="no"/>
    </contour>
    <contour>
      <point x="397.352" y="431.452" type="line" smooth="no"/>
      <point x="479.168" y="431.452"/>
      <point x="545.569" y="460.961"/>
      <point x="545.569" y="543.864" type="curve" smooth="yes"/>
      <point x="545.569" y="626.766"/>
      <point x="479.168" y="656.275"/>
      <point x="397.352" y="656.275" type="curve" smooth="yes"/>
      <point x="339.564" y="656.275" type="line" smooth="no"/>
      <point x="339.564" y="430.975" type="line" smooth="yes"/>
      <point x="342.38" y="430" type="line" smooth="yes"/>
      <point x="397.352" y="430" type="line" smooth="no"/>
    </contour>
    <contour>
      <point x="534" y="422.649" type="curve" smooth="no"/>
      <point x="696.044" y="400"/>
      <point x="807.675" y="327.541"/>
      <point x="807.675" y="215" type="curve" smooth="yes"/>
      <point x="807.675" y="60"/>
      <point x="653.114" y="0"/>
      <point x="462.675" y="0" type="curve" smooth="yes"/>
      <point x="192.325" y="0" type="line" smooth="no"/>
      <point x="192.325" y="398" type="line" smooth="yes"/>
      <point x="191.62" y="476.029"/>
      <point x="192.381" y="612.057"/>
      <point x="192.325" y="690.086" type="curve" smooth="no"/>
      <point x="397.352" y="690.086" type="line" smooth="yes"/>
      <point x="541.775" y="690.086"/>
      <point x="658.991" y="653.269"/>
      <point x="658.991" y="545.043" type="curve" smooth="yes"/>
      <point x="658.991" y="484.887"/>
      <point x="620" y="440"/>
    </contour>
  </outline>
</glyph>
<glyph name="C" format="1">
  <advance width="1000"/>
  <unicode hex="0043"/>
  <outline>
    <contour>
      <point x="687.041" y="210" type="line" smooth="no"/>
      <point x="659.237" y="90.8594"/>
      <point x="587.743" y="6"/>
      <point x="504" y="6" type="curve" smooth="yes"/>
      <point x="396.115" y="6"/>
      <point x="308.559" y="124.242"/>
      <point x="308.559" y="341.596" type="curve" smooth="yes"/>
      <point x="308.559" y="558.948"/>
      <point x="396.115" y="678.749"/>
      <point x="504" y="678.749" type="curve" smooth="yes"/>
      <point x="585.082" y="678.749"/>
      <point x="654.682" y="599.196"/>
      <point x="684.26" y="486" type="curve" smooth="no"/>
      <point x="828.268" y="485.997" type="line" smooth="no"/>
      <point x="780.036" y="618.386"/>
      <point x="652.999" y="713"/>
      <point x="504" y="713" type="curve" smooth="yes"/>
      <point x="313.561" y="713"/>
      <point x="159" y="584.661"/>
      <point x="159" y="346.137" type="curve" smooth="yes"/>
      <point x="159" y="107.611"/>
      <point x="313.561" y="-21"/>
      <point x="504" y="-21" type="curve" smooth="yes"/>
      <point x="654.496" y="-21"/>
      <point x="782.585" y="75.5244"/>
      <point x="829.698" y="210.005" type="curve" smooth="no"/>
    </contour>
  </outline>
</glyph>
<glyph name="D" format="1">
  <advance width="1000"/>
  <unicode hex="0044"/>
  <outline>
    <contour>
      <point x="462.675" y="27" type="line" smooth="no"/>
      <point x="570.56" y="27"/>
      <point x="658.116" y="167.839"/>
      <point x="658.116" y="341.375" type="curve" smooth="yes"/>
      <point x="658.116" y="514.91"/>
      <point x="570.56" y="655.749"/>
      <point x="462.675" y="655.749" type="curve" smooth="yes"/>
      <point x="340.325" y="655.749" type="line" smooth="no"/>
      <point x="340.325" y="26" type="line" smooth="no"/>
      <point x="462.675" y="26" type="line" smooth="no"/>
    </contour>
    <contour>
      <point x="192.325" y="0" type="line" smooth="no"/>
      <point x="192.325" y="690" type="line" smooth="no"/>
      <point x="462.675" y="690" type="line" smooth="yes"/>
      <point x="653.114" y="690"/>
      <point x="807.675" y="535.439"/>
      <point x="807.675" y="345" type="curve" smooth="yes"/>
      <point x="807.675" y="154.561"/>
      <point x="653.114" y="0"/>
      <point x="462.675" y="0" type="curve" smooth="yes"/>
    </contour>
  </outline>
</glyph>
<glyph name="E" format="1">
  <advance width="1000"/>
  <unicode hex="0045"/>
  <outline>
    <contour>
      <point x="160" y="0" type="line" smooth="no"/>
      <point x="160" y="690" type="line" smooth="no"/>
      <point x="850" y="690" type="line" smooth="no"/>
      <point x="850" y="664" type="line" smooth="no"/>
      <point x="308" y="664" type="line" smooth="no"/>
      <point x="308" y="338.001" type="line" smooth="no"/>
      <point x="660" y="338.001" type="line" smooth="no"/>
      <point x="660" y="312.001" type="line" smooth="no"/>
      <point x="308" y="312.001" type="line" smooth="no"/>
      <point x="308" y="26" type="line" smooth="no"/>
      <point x="850" y="26" type="line" smooth="no"/>
      <point x="850" y="0" type="line" smooth="no"/>
    </contour>
  </outline>
</glyph>
<glyph name="G" format="1">
  <advance width="1000"/>
  <unicode hex="0047"/>
  <outline>
    <contour>
      <point x="830" y="368" type="line" smooth="no"/>
      <point x="475" y="368" type="line" smooth="no"/>
      <point x="475" y="342" type="line" smooth="no"/>
      <point x="687.04" y="342" type="line" smooth="no"/>
      <point x="687.041" y="210" type="line" smooth="no"/>
      <point x="659.237" y="90.8594"/>
      <point x="587.743" y="6"/>
      <point x="504" y="6" type="curve" smooth="yes"/>
      <point x="396.115" y="6"/>
      <point x="308.559" y="135.141"/>
      <point x="308.559" y="341.375" type="curve" smooth="yes"/>
      <point x="308.559" y="547.608"/>
      <point x="396.115" y="679.752"/>
      <point x="504" y="679.752" type="curve" smooth="yes"/>
      <point x="585.082" y="679.752"/>
      <point x="654.682" y="600.196"/>
      <point x="684.26" y="487" type="curve" smooth="no"/>
      <point x="828.268" y="487" type="line" smooth="no"/>
      <point x="780.036" y="619.389"/>
      <point x="652.999" y="714.003"/>
      <point x="504" y="714.003" type="curve" smooth="yes"/>
      <point x="313.562" y="714.003"/>
      <point x="159.054" y="572.005"/>
      <point x="159.054" y="345.683" type="curve" smooth="yes"/>
      <point x="159.054" y="119.361"/>
      <point x="313.561" y="-21"/>
      <point x="504" y="-21" type="curve" smooth="yes"/>
      <point x="654.496" y="-21"/>
      <point x="782.583" y="75.5195"/>
      <point x="829.696" y="210" type="curve" smooth="no"/>
    </contour>
  </outline>
</glyph>
<glyph name="H" format="1">
  <advance width="1000"/>
  <unicode hex="0048"/>
  <outline>
    <contour>
      <point x="160" y="690" type="line" smooth="no"/>
      <point x="308" y="690" type="line" smooth="no"/>
      <point x="308" y="338.001" type="line" smooth="no"/>
      <point x="702" y="338.001" type="line" smooth="no"/>
      <point x="702" y="690" type="line" smooth="no"/>
      <point x="850" y="690" type="line" smooth="no"/>
      <point x="850" y="0" type="line" smooth="no"/>
      <point x="702" y="0" type="line" smooth="no"/>
      <point x="702" y="312.001" type="line" smooth="no"/>
      <point x="308" y="312.001" type="line" smooth="no"/>
      <point x="308" y="0" type="line" smooth="no"/>
      <point x="160" y="0" type="line" smooth="no"/>
    </contour>
  </outline>
</glyph>
<glyph name="I" format="1">
  <advance width="473"/>
  <unicode hex="0049"/>
  <outline>
    <contour>
      <point x="160" y="1" type="line" smooth="no"/>
      <point x="160" y="691" type="line" smooth="no"/>
      <point x="308" y="691" type="line" smooth="no"/>
      <point x="308" y="0" type="line" smooth="no"/>
    </contour>
  </outline>
</glyph>
<glyph name="J" format="1">
  <advance width="1000"/>
  <unicode hex="004a"/>
  <outline>
    <contour>
      <point x="397" y="0.000976562" type="line" smooth="no"/>
      <point x="504" y="0" type="line" smooth="no"/>
      <point x="654.496" y="-6.93889e-018"/>
      <point x="782.583" y="96.5195"/>
      <point x="829.696" y="231" type="curve" smooth="no"/>
      <point x="830" y="690" type="line" smooth="no"/>
      <point x="475" y="690" type="line" smooth="no"/>
      <point x="475" y="664" type="line" smooth="no"/>
      <point x="687.04" y="664" type="line" smooth="no"/>
      <point x="687.041" y="231" type="line" smooth="no"/>
      <point x="659.237" y="111.859"/>
      <point x="587.743" y="26"/>
      <point x="504" y="26" type="curve" smooth="no"/>
      <point x="397" y="26" type="line" smooth="no"/>
    </contour>
  </outline>
</glyph>
<glyph name="K" format="1">
  <advance width="1000"/>
  <unicode hex="004b"/>
  <outline>
    <contour>
      <point x="417.73" y="341" type="curve" smooth="no"/>
      <point x="799.792" y="690" type="line" smooth="no"/>
      <point x="647.792" y="690" type="line" smooth="no"/>
      <point x="374" y="396.797" type="line" smooth="no"/>
      <point x="374" y="687.218" type="line" smooth="no"/>
      <point x="232" y="687.218" type="line" smooth="no"/>
      <point x="232" y="-0.000976562" type="line" smooth="no"/>
      <point x="374" y="-0.000976562" type="line" smooth="no"/>
      <point x="374" y="295.985" type="line" smooth="no"/>
      <point x="647.792" y="2.78223" type="line" smooth="no"/>
      <point x="799.792" y="2.78223" type="line" smooth="no"/>
      <point x="801" y="1"/>
      <point x="411.328" y="344"/>
    </contour>
  </outline>
</glyph>
<glyph name="L" format="1">
  <advance width="1000"/>
  <unicode hex="004c"/>
  <outline>
    <contour>
      <point x="160" y="0" type="line" smooth="no"/>
      <point x="160" y="690" type="line" smooth="no"/>
      <point x="308" y="690" type="line" smooth="no"/>
      <point x="308" y="26" type="line" smooth="no"/>
      <point x="850" y="26" type="line" smooth="no"/>
      <point x="850" y="0" type="line" smooth="no"/>
    </contour>
  </outline>
</glyph>
<glyph name="M" format="1">
  <advance width="996"/>
  <unicode hex="004d"/>
  <outline>
    <contour>
      <point x="646.792" y="690" type="line" smooth="no"/>
      <point x="768.792" y="690" type="line" smooth="no"/>
      <point x="569.792" y="0.000976562" type="line" smooth="no"/>
      <point x="578.208" y="0.000976562" type="line" smooth="no"/>
      <point x="437.792" y="0.000976562" type="line" smooth="no"/>
      <point x="436.208" y="0.000976562" type="line" smooth="no"/>
      <point x="238.208" y="690" type="line" smooth="no"/>
      <point x="360.208" y="690" type="line" smooth="no"/>
      <point x="402.767" y="475.879"/>
      <point x="456.262" y="252.957"/>
      <point x="504" y="34.251" type="curve" smooth="no"/>
    </contour>
    <contour>
      <point x="711" y="690" type="line" smooth="no"/>
      <point x="841" y="690" type="line" smooth="no"/>
      <point x="841" y="0" type="line" smooth="no"/>
      <point x="711" y="0" type="line" smooth="no"/>
    </contour>
    <contour>
      <point x="166" y="690" type="line" smooth="no"/>
      <point x="296" y="690" type="line" smooth="no"/>
      <point x="296" y="0" type="line" smooth="no"/>
      <point x="166" y="0" type="line" smooth="no"/>
    </contour>
  </outline>
</glyph>
<glyph name="N" format="1">
  <advance width="877"/>
  <unicode hex="004e"/>
  <outline>
    <contour>
      <point x="628.192" y="0" type="move" smooth="no"/>
    </contour>
    <contour>
      <point x="628.192" y="-0.000976562" type="curve" smooth="no"/>
      <point x="523.584" y="0" type="line" smooth="no"/>
      <point x="522" y="0" type="line" smooth="no"/>
      <point x="238.208" y="690" type="line" smooth="no"/>
      <point x="360.208" y="690" type="line" smooth="no"/>
      <point x="356.687" y="690"/>
      <point x="624.929" y="0.000269218"/>
    </contour>
    <contour>
      <point x="575" y="690" type="line" smooth="no"/>
      <point x="705" y="690" type="line" smooth="no"/>
      <point x="705" y="0" type="line" smooth="no"/>
      <point x="575" y="0" type="line" smooth="no"/>
    </contour>
    <contour>
      <point x="166" y="690" type="line" smooth="no"/>
      <point x="296" y="690" type="line" smooth="no"/>
      <point x="296" y="0" type="line" smooth="no"/>
      <point x="166" y="0" type="line" smooth="no"/>
    </contour>
  </outline>
</glyph>
<glyph name="O" format="1">
  <advance width="1000"/>
  <unicode hex="004f"/>
  <outline>
    <contour>
      <point x="152.083" y="345" type="curve" smooth="yes"/>
      <point x="152.083" y="577.297"/>
      <point x="310.884" y="714.15"/>
      <point x="502.275" y="714.15" type="curve" smooth="yes"/>
      <point x="693.666" y="714.15"/>
      <point x="849" y="577.297"/>
      <point x="849" y="345" type="curve" smooth="yes"/>
      <point x="849" y="112.703"/>
      <point x="693.666" y="-5.15039"/>
      <point x="502.275" y="-5.15039" type="curve" smooth="yes"/>
      <point x="310.884" y="-5.15039"/>
      <point x="152.083" y="112.703"/>
    </contour>
    <contour>
      <point x="303.141" y="340.578" type="curve" smooth="yes"/>
      <point x="303.141" y="128.898"/>
      <point x="393.851" y="23.7402"/>
      <point x="502.275" y="23.7402" type="curve" smooth="yes"/>
      <point x="610.699" y="23.7402"/>
      <point x="697.941" y="128.898"/>
      <point x="697.941" y="340.578" type="curve" smooth="yes"/>
      <point x="697.941" y="552.256"/>
      <point x="610.699" y="677.502"/>
      <point x="502.275" y="677.502" type="curve" smooth="yes"/>
      <point x="393.851" y="677.502"/>
      <point x="303.141" y="552.256"/>
    </contour>
  </outline>
</glyph>
<glyph name="P" format="1">
  <advance width="1000"/>
  <unicode hex="0050"/>
  <outline>
    <contour>
      <point x="462.675" y="662.982" type="line" smooth="no"/>
      <point x="570.56" y="662.982"/>
      <point x="658.116" y="619.982"/>
      <point x="658.116" y="478.607" type="curve" smooth="yes"/>
      <point x="658.116" y="339.982"/>
      <point x="570.56" y="294.233"/>
      <point x="462.675" y="294.233" type="curve" smooth="yes"/>
      <point x="341" y="294.233" type="line" smooth="no"/>
      <point x="341" y="663.982" type="line" smooth="no"/>
      <point x="462.675" y="663.982" type="line" smooth="no"/>
    </contour>
    <contour>
      <point x="534" y="267" type="curve" smooth="no"/>
      <point x="678" y="267"/>
      <point x="807.675" y="362.441"/>
      <point x="807.675" y="474.982" type="curve" smooth="yes"/>
      <point x="807.675" y="629.982"/>
      <point x="653.114" y="689.982"/>
      <point x="462.675" y="689.982" type="curve" smooth="yes"/>
      <point x="192.325" y="689.982" type="line" smooth="no"/>
      <point x="192.325" y="291.982" type="line" smooth="yes"/>
      <point x="191.62" y="213.953"/>
      <point x="192.381" y="77.9258"/>
      <point x="192.325" y="-0.103516" type="curve" smooth="no"/>
      <point x="341" y="0" type="line" smooth="yes"/>
      <point x="341" y="0"/>
      <point x="343" y="267"/>
      <point x="341" y="267" type="curve" smooth="yes"/>
      <point x="339" y="267"/>
      <point x="448" y="267"/>
    </contour>
  </outline>
</glyph>
<glyph name="Q" format="1">
  <advance width="1000"/>
  <unicode hex="0051"/>
  <outline>
    <contour>
      <point x="305.856" y="340.327" type="curve" smooth="yes"/>
      <point x="305.856" y="116.613"/>
      <point x="396.115" y="5"/>
      <point x="504" y="5" type="curve" smooth="yes"/>
      <point x="525.92" y="5"/>
      <point x="547.001" y="10.8145"/>
      <point x="566.679" y="21.5352" type="curve" smooth="no"/>
      <point x="539.173" y="84.2148"/>
      <point x="522" y="148"/>
      <point x="522" y="148" type="curve" smooth="no"/>
      <point x="544.901" y="117.895"/>
      <point x="582.292" y="90.6748"/>
      <point x="618.748" y="64.9141" type="curve" smooth="no"/>
      <point x="667.637" y="122.075"/>
      <point x="698.693" y="205.496"/>
      <point x="698.693" y="340.327" type="curve" smooth="yes"/>
      <point x="698.693" y="564.039"/>
      <point x="611.885" y="680.749"/>
      <point x="504" y="680.749" type="curve" smooth="yes"/>
      <point x="396.115" y="680.749"/>
      <point x="305.856" y="564.039"/>
    </contour>
    <contour>
      <point x="155.55" y="345" type="curve" smooth="yes"/>
      <point x="155.55" y="590.504"/>
      <point x="313.561" y="715"/>
      <point x="504" y="715" type="curve" smooth="yes"/>
      <point x="694.439" y="715"/>
      <point x="849" y="590.504"/>
      <point x="849" y="345" type="curve" smooth="yes"/>
      <point x="849" y="179.898"/>
      <point x="779.099" y="83.0859"/>
      <point x="675.393" y="23.5645" type="curve" smooth="no"/>
      <point x="721.014" y="-12.8877"/>
      <point x="745.966" y="-47.8584"/>
      <point x="700" y="-86" type="curve" smooth="yes"/>
      <point x="656.403" y="-122.176"/>
      <point x="614.958" y="-74.4609"/>
      <point x="583.046" y="-12.8896" type="curve" smooth="no"/>
      <point x="557.659" y="-18.8477"/>
      <point x="531.195" y="-22"/>
      <point x="504" y="-22" type="curve" smooth="yes"/>
      <point x="313.561" y="-22"/>
      <point x="155.55" y="99.4961"/>
    </contour>
  </outline>
</glyph>
<glyph name="R" format="1">
  <advance width="1000"/>
  <unicode hex="0052"/>
  <outline>
    <contour>
      <point x="462.675" y="662.982" type="curve" smooth="no"/>
      <point x="462.675" y="663.982" type="line" smooth="no"/>
      <point x="341" y="663.982" type="line" smooth="no"/>
      <point x="341" y="314.233" type="line" smooth="no"/>
      <point x="462.675" y="314.233" type="line" smooth="yes"/>
      <point x="570.56" y="314.233"/>
      <point x="658.116" y="364.939"/>
      <point x="658.116" y="488.607" type="curve" smooth="yes"/>
      <point x="658.116" y="598.956"/>
      <point x="570.56" y="662.982"/>
    </contour>
    <contour>
      <point x="460.338" y="287" type="line" smooth="no"/>
      <point x="341" y="287" type="line" smooth="yes"/>
      <point x="343" y="287"/>
      <point x="341" y="0"/>
      <point x="341" y="0" type="curve" smooth="no"/>
      <point x="291.925" y="0.0688305"/>
      <point x="247.226" y="-0.0263143"/>
      <point x="192.325" y="-0.103516" type="curve" smooth="no"/>
      <point x="192.381" y="77.9258"/>
      <point x="191.62" y="213.953"/>
      <point x="192.325" y="291.982" type="curve" smooth="yes"/>
      <point x="192.325" y="689.982" type="line" smooth="no"/>
      <point x="462.675" y="689.982" type="line" smooth="yes"/>
      <point x="653.114" y="689.982"/>
      <point x="807.675" y="634.939"/>
      <point x="807.675" y="484.982" type="curve" smooth="yes"/>
      <point x="807.675" y="380.622"/>
      <point x="726" y="314.939"/>
      <point x="582" y="292.939" type="curve" smooth="no"/>
      <point x="804" y="0" type="line" smooth="no"/>
      <point x="662" y="0" type="line" smooth="no"/>
    </contour>
  </outline>
</glyph>
<glyph name="S" format="1">
  <advance width="1000"/>
  <unicode hex="0053"/>
  <outline>
    <contour>
      <point x="376" y="573" type="curve" smooth="no"/>
      <point x="376" y="637"/>
      <point x="404.711" y="681.609"/>
      <point x="495.801" y="682.029" type="curve" smooth="no"/>
      <point x="563.909" y="682.029"/>
      <point x="602.373" y="627.205"/>
      <point x="627.219" y="532.12" type="curve" smooth="no"/>
      <point x="748.186" y="532.118" type="line" smooth="no"/>
      <point x="707.671" y="643.324"/>
      <point x="620.96" y="710.8"/>
      <point x="495.801" y="710.8" type="curve" smooth="yes"/>
      <point x="335.831" y="710.8"/>
      <point x="244" y="629"/>
      <point x="244" y="521" type="curve" smooth="no"/>
      <point x="244" y="281"/>
      <point x="636" y="273.245"/>
      <point x="636" y="157" type="curve" smooth="no"/>
      <point x="636" y="77"/>
      <point x="587.184" y="23.2772"/>
      <point x="496.8" y="22.6797" type="curve" smooth="no"/>
      <point x="426.456" y="22.6797"/>
      <point x="366.401" y="93.9619"/>
      <point x="343.046" y="194.04" type="curve" smooth="no"/>
      <point x="223.214" y="194.044" type="line" smooth="no"/>
      <point x="262.789" y="81.0801"/>
      <point x="370.384" y="0"/>
      <point x="496.8" y="0" type="curve" smooth="no"/>
      <point x="656.788" y="0.0277995"/>
      <point x="774" y="88"/>
      <point x="774" y="196" type="curve" smooth="no"/>
      <point x="774" y="394"/>
      <point x="376.05" y="393.226"/>
    </contour>
  </outline>
</glyph>
<glyph name="T" format="1">
  <advance width="1000"/>
  <unicode hex="0054"/>
  <outline>
    <contour>
      <point x="426" y="670" type="line" smooth="no"/>
      <point x="200" y="670" type="line" smooth="no"/>
      <point x="200" y="690" type="line" smooth="no"/>
      <point x="426" y="690" type="line" smooth="no"/>
      <point x="574" y="690" type="line" smooth="no"/>
      <point x="800" y="690" type="line" smooth="no"/>
      <point x="800" y="670" type="line" smooth="no"/>
      <point x="574" y="670" type="line" smooth="no"/>
      <point x="574" y="-1" type="line" smooth="no"/>
      <point x="426" y="0" type="line" smooth="no"/>
    </contour>
  </outline>
</glyph>
<glyph name="U" format="1">
  <advance width="1000"/>
  <unicode hex="0055"/>
  <outline>
    <contour>
      <point x="850" y="328.9" type="line" smooth="no"/>
      <point x="850" y="91.6572"/>
      <point x="693.734" y="-20.5312"/>
      <point x="503.295" y="-20.5312" type="curve" smooth="yes"/>
      <point x="312.855" y="-20.5312"/>
      <point x="157.555" y="91.6572"/>
      <point x="157.555" y="324.469" type="curve" smooth="no"/>
      <point x="159" y="691" type="line" smooth="no"/>
      <point x="307" y="691" type="line" smooth="no"/>
      <point x="306.295" y="324.469" type="line" smooth="no"/>
      <point x="307.861" y="116.754"/>
      <point x="395.41" y="13.7197"/>
      <point x="503.295" y="13.7197" type="curve" smooth="yes"/>
      <point x="611.18" y="13.7197"/>
      <point x="701.26" y="116.754"/>
      <point x="701.26" y="328.9" type="curve" smooth="no"/>
      <point x="700" y="691" type="line" smooth="no"/>
      <point x="848" y="691" type="line" smooth="no"/>
    </contour>
  </outline>
</glyph>
<glyph name="V" format="1">
  <advance width="1000"/>
  <unicode hex="0056"/>
  <outline>
    <contour>
      <point x="352.208" y="690" type="line" smooth="no"/>
      <point x="210.208" y="690" type="line" smooth="no"/>
      <point x="428.208" y="0.000976562" type="line" smooth="no"/>
      <point x="429.792" y="0.000976562" type="line" smooth="no"/>
      <point x="570.208" y="0.000976562" type="line" smooth="no"/>
      <point x="571.792" y="0.000976562" type="line" smooth="no"/>
      <point x="789.792" y="690" type="line" smooth="no"/>
      <point x="647.792" y="690" type="line" smooth="no"/>
      <point x="504" y="34.251" type="line" smooth="no"/>
    </contour>
  </outline>
</glyph>
<glyph name="W" format="1">
  <advance width="1000"/>
  <unicode hex="0057"/>
  <outline>
    <contour>
      <point x="435.208" y="690" type="line" smooth="no"/>
      <point x="333.208" y="690" type="line" smooth="no"/>
      <point x="561.208" y="0.000976562" type="line" smooth="no"/>
      <point x="562.792" y="0.000976562" type="line" smooth="no"/>
      <point x="703.208" y="0.000976562" type="line" smooth="no"/>
      <point x="704.792" y="0.000976562" type="line" smooth="no"/>
      <point x="922.792" y="690" type="line" smooth="no"/>
      <point x="780.792" y="690" type="line" smooth="no"/>
      <point x="637" y="34.251" type="line" smooth="no"/>
    </contour>
    <contour>
      <point x="225.208" y="690" type="line" smooth="no"/>
      <point x="83.208" y="690" type="line" smooth="no"/>
      <point x="301.208" y="0.000976562" type="line" smooth="no"/>
      <point x="302.792" y="0.000976562" type="line" smooth="no"/>
      <point x="443.208" y="0.000976562" type="line" smooth="no"/>
      <point x="444.792" y="0.000976562" type="line" smooth="no"/>
      <point x="672.792" y="690" type="line" smooth="no"/>
      <point x="570.792" y="690" type="line" smooth="no"/>
      <point x="377" y="34.251" type="line" smooth="no"/>
    </contour>
  </outline>
</glyph>
<glyph name="X" format="1">
  <advance width="1000"/>
  <unicode hex="0058"/>
  <outline>
    <contour>
      <point x="352.208" y="690" type="line" smooth="no"/>
      <point x="504" y="396.797" type="line" smooth="no"/>
      <point x="647.792" y="690" type="line" smooth="no"/>
      <point x="789.792" y="690" type="line" smooth="no"/>
      <point x="581.73" y="341" type="line" smooth="yes"/>
      <point x="581.792" y="341" type="line" smooth="no"/>
      <point x="575.39" y="344"/>
      <point x="791" y="1"/>
      <point x="789.792" y="2.78223" type="curve" smooth="no"/>
      <point x="647.792" y="2.78223" type="line" smooth="no"/>
      <point x="504" y="295.985" type="line" smooth="no"/>
      <point x="352.208" y="2.78223" type="line" smooth="no"/>
      <point x="210.208" y="2.78223" type="line" smooth="no"/>
      <point x="432.277" y="341" type="line" smooth="no"/>
      <point x="210.208" y="690" type="line" smooth="no"/>
    </contour>
  </outline>
</glyph>
<glyph name="Y" format="1">
  <advance width="906"/>
  <unicode hex="0059"/>
  <outline>
    <contour>
      <point x="380" y="-0.000976562" type="line" smooth="no"/>
      <point x="381.277" y="241" type="line" smooth="no"/>
      <point x="149.208" y="690" type="line" smooth="no"/>
      <point x="291.208" y="690" type="line" smooth="no"/>
      <point x="443" y="286.797" type="line" smooth="no"/>
      <point x="586.792" y="690" type="line" smooth="no"/>
      <point x="728.792" y="690" type="line" smooth="no"/>
      <point x="504" y="241.017" type="line" smooth="no"/>
      <point x="497.972" y="242.107"/>
      <point x="504" y="-0.000976562"/>
      <point x="504" y="-0.000976562" type="curve" smooth="yes"/>
    </contour>
  </outline>
</glyph>
<glyph name="a" format="1">
  <advance width="1000"/>
  <unicode hex="0061"/>
  <outline>
    <contour>
      <point x="358.931" y="243.963" type="curve" smooth="yes"/>
      <point x="358.931" y="122.487"/>
      <point x="424.816" y="26.9004"/>
      <point x="506" y="26.9004" type="curve" smooth="yes"/>
      <point x="587.184" y="26.9004"/>
      <point x="653.069" y="122.487"/>
      <point x="653.069" y="243.963" type="curve" smooth="yes"/>
      <point x="653.069" y="365.437"/>
      <point x="587.184" y="460.024"/>
      <point x="506" y="460.024" type="curve" smooth="yes"/>
      <point x="424.816" y="460.024"/>
      <point x="358.931" y="365.437"/>
    </contour>
    <contour>
      <point x="806" y="0" type="line" smooth="no"/>
      <point x="653.069" y="0" type="line" smooth="no"/>
      <point x="653.069" y="106.5" type="line" smooth="no"/>
      <point x="624" y="40.5"/>
      <point x="567.871" y="0.997288"/>
      <point x="506" y="0" type="curve" smooth="no"/>
      <point x="307.705" y="0"/>
      <point x="204.125" y="113.192"/>
      <point x="204.125" y="246.5" type="curve" smooth="yes"/>
      <point x="204.125" y="379.808"/>
      <point x="307.705" y="493"/>
      <point x="506" y="493" type="curve" smooth="yes"/>
      <point x="582" y="493"/>
      <point x="634" y="434.5"/>
      <point x="653.069" y="382.5" type="curve" smooth="no"/>
      <point x="653.069" y="487.963" type="line" smooth="no"/>
      <point x="806" y="487.963" type="line" smooth="no"/>
    </contour>
  </outline>
</glyph>
<glyph name="b" format="1">
  <advance width="1000"/>
  <unicode hex="0062"/>
  <outline>
    <contour>
      <point x="646.132" y="243.963" type="curve" smooth="yes"/>
      <point x="646.132" y="122.487"/>
      <point x="580.246" y="26.9004"/>
      <point x="499.062" y="26.9004" type="curve" smooth="yes"/>
      <point x="417.879" y="26.9004"/>
      <point x="351.993" y="122.487"/>
      <point x="351.993" y="243.963" type="curve" smooth="yes"/>
      <point x="351.993" y="365.437"/>
      <point x="417.879" y="460.024"/>
      <point x="499.062" y="460.024" type="curve" smooth="yes"/>
      <point x="580.246" y="460.024"/>
      <point x="646.132" y="365.437"/>
    </contour>
    <contour>
      <point x="199.062" y="0" type="line" smooth="no"/>
      <point x="351.993" y="0" type="line" smooth="no"/>
      <point x="351.993" y="86" type="line" smooth="no"/>
      <point x="384" y="37.9996"/>
      <point x="440.374" y="1.3086"/>
      <point x="499.062" y="0" type="curve" smooth="no"/>
      <point x="697.357" y="0"/>
      <point x="800.938" y="113.192"/>
      <point x="800.938" y="246.5" type="curve" smooth="no"/>
      <point x="798.032" y="377.915"/>
      <point x="688.131" y="476.991"/>
      <point x="499.062" y="483" type="curve" smooth="no"/>
      <point x="444" y="483"/>
      <point x="386.072" y="453.937"/>
      <point x="351.993" y="406" type="curve" smooth="no"/>
      <point x="351.993" y="800.004" type="line" smooth="no"/>
      <point x="199.062" y="800.004" type="line" smooth="no"/>
    </contour>
  </outline>
</glyph>
<glyph name="c" format="1">
  <advance width="1000"/>
  <unicode hex="0063"/>
  <outline>
    <contour>
      <point x="358.931" y="243.963" type="curve" smooth="yes"/>
      <point x="358.931" y="122.487"/>
      <point x="424.816" y="26.9004"/>
      <point x="506" y="26.9004" type="curve" smooth="yes"/>
      <point x="563.637" y="26.9004"/>
      <point x="613.564" y="75.0809"/>
      <point x="637.677" y="146.5" type="curve" smooth="no"/>
      <point x="786.223" y="146.5" type="line" smooth="no"/>
      <point x="746.333" y="61.154"/>
      <point x="651.752" y="-5.08626e-006"/>
      <point x="506" y="0" type="curve" smooth="yes"/>
      <point x="307.705" y="0"/>
      <point x="204.125" y="113.192"/>
      <point x="204.125" y="246.5" type="curve" smooth="yes"/>
      <point x="204.125" y="379.808"/>
      <point x="307.705" y="493"/>
      <point x="506" y="493" type="curve" smooth="yes"/>
      <point x="648.313" y="493"/>
      <point x="741.842" y="434.698"/>
      <point x="783.308" y="352.5" type="curve" smooth="no"/>
      <point x="633.561" y="352.5" type="line" smooth="no"/>
      <point x="608.167" y="417.342"/>
      <point x="560.535" y="460.024"/>
      <point x="506" y="460.024" type="curve" smooth="yes"/>
      <point x="424.816" y="460.024"/>
      <point x="358.931" y="365.437"/>
    </contour>
  </outline>
</glyph>
<glyph name="d" format="1">
  <advance width="1000"/>
  <unicode hex="0064"/>
  <outline>
    <contour>
      <point x="349.868" y="243.963" type="curve" smooth="yes"/>
      <point x="349.868" y="122.487"/>
      <point x="415.754" y="26.9004"/>
      <point x="496.938" y="26.9004" type="curve" smooth="yes"/>
      <point x="578.121" y="26.9004"/>
      <point x="644.007" y="122.487"/>
      <point x="644.007" y="243.963" type="curve" smooth="yes"/>
      <point x="644.007" y="365.437"/>
      <point x="578.121" y="460.024"/>
      <point x="496.938" y="460.024" type="curve" smooth="yes"/>
      <point x="415.754" y="460.024"/>
      <point x="349.868" y="365.437"/>
    </contour>
    <contour>
      <point x="796.938" y="0" type="line" smooth="no"/>
      <point x="644.007" y="0" type="line" smooth="no"/>
      <point x="644.007" y="86" type="line" smooth="no"/>
      <point x="612" y="38"/>
      <point x="555.626" y="1.30859"/>
      <point x="496.938" y="0" type="curve" smooth="no"/>
      <point x="298.643" y="0"/>
      <point x="195.062" y="113.192"/>
      <point x="195.062" y="246.5" type="curve" smooth="no"/>
      <point x="197.968" y="377.915"/>
      <point x="306" y="483"/>
      <point x="496.938" y="483" type="curve" smooth="no"/>
      <point x="552" y="483"/>
      <point x="609.928" y="453.938"/>
      <point x="644.007" y="406" type="curve" smooth="no"/>
      <point x="644.007" y="800.004" type="line" smooth="no"/>
      <point x="796.938" y="800.004" type="line" smooth="no"/>
    </contour>
  </outline>
</glyph>
<glyph name="e" format="1">
  <advance width="1000"/>
  <unicode hex="0065"/>
  <outline>
    <contour>
      <point x="653.069" y="243.963" type="line" smooth="yes"/>
      <point x="653.069" y="365.437"/>
      <point x="587.184" y="460.024"/>
      <point x="506" y="460.024" type="curve" smooth="yes"/>
      <point x="424.816" y="460.024"/>
      <point x="358.931" y="365.437"/>
      <point x="358.931" y="243.963" type="curve" smooth="yes"/>
      <point x="358.931" y="122.487"/>
      <point x="424.816" y="26.9004"/>
      <point x="506" y="26.9004" type="curve" smooth="yes"/>
      <point x="567.844" y="26.9004"/>
      <point x="620.811" y="82.3709"/>
      <point x="642.537" y="162.5" type="curve" smooth="no"/>
      <point x="792.956" y="162.5" type="line" smooth="no"/>
      <point x="757.765" y="68.9012"/>
      <point x="660.709" y="5.08626e-006"/>
      <point x="506" y="0" type="curve" smooth="yes"/>
      <point x="307.705" y="0"/>
      <point x="204.125" y="113.192"/>
      <point x="204.125" y="246.5" type="curve" smooth="yes"/>
      <point x="204.125" y="379.808"/>
      <point x="307.705" y="493"/>
      <point x="506" y="493" type="curve" smooth="yes"/>
      <point x="704.295" y="493"/>
      <point x="807.875" y="379.808"/>
      <point x="807.875" y="246.5" type="curve" smooth="yes"/>
      <point x="807.875" y="221" type="line" smooth="no"/>
      <point x="398.875" y="221" type="line" smooth="no"/>
      <point x="398.875" y="243.5" type="line" smooth="no"/>
    </contour>
    <contour>
      <point x="642.537" y="162.5" type="move" smooth="no"/>
    </contour>
  </outline>
</glyph>
<glyph name="f" format="1">
  <advance width="1000"/>
  <unicode hex="0066"/>
  <outline>
    <contour>
      <point x="580" y="308" type="line" smooth="no"/>
      <point x="527.992" y="308.024" type="line" smooth="no"/>
      <point x="446.809" y="308.024"/>
      <point x="382.149" y="213.432"/>
      <point x="380.922" y="91.9629" type="curve" smooth="yes"/>
      <point x="380.922" y="91.9629"/>
      <point x="380.355" y="85.0059"/>
      <point x="379.992" y="0" type="curve" smooth="no"/>
      <point x="225.992" y="0" type="line" smooth="no"/>
      <point x="225.992" y="442.5" type="line" smooth="yes"/>
      <point x="225.992" y="575.808"/>
      <point x="329.697" y="690"/>
      <point x="527.992" y="690" type="curve" smooth="yes"/>
      <point x="686" y="690" type="line" smooth="no"/>
      <point x="686" y="656.1" type="line" smooth="no"/>
      <point x="527.992" y="656.024" type="line" smooth="yes"/>
      <point x="446.809" y="656.024"/>
      <point x="380.922" y="561.437"/>
      <point x="380.922" y="439.963" type="curve" smooth="yes"/>
      <point x="380.389" y="315.045" type="line" smooth="no"/>
      <point x="421.595" y="331.607"/>
      <point x="470.869" y="341"/>
      <point x="527.992" y="341" type="curve" smooth="no"/>
      <point x="580" y="341.375" type="line" smooth="no"/>
    </contour>
  </outline>
</glyph>
<glyph name="g" format="1">
  <advance width="852"/>
  <unicode hex="0067"/>
  <outline>
    <contour>
      <point x="731.223" y="146.5" type="line" smooth="no"/>
      <point x="730.696" y="4" type="line" smooth="no"/>
      <point x="683.583" y="-130.48"/>
      <point x="555.496" y="-227"/>
      <point x="405" y="-227" type="curve" smooth="yes"/>
      <point x="155.223" y="-227" type="line" smooth="no"/>
      <point x="155.223" y="-201" type="line" smooth="no"/>
      <point x="405" y="-201" type="line" smooth="yes"/>
      <point x="488.743" y="-201"/>
      <point x="553.236" y="-115.141"/>
      <point x="581.04" y="4" type="curve" smooth="no"/>
      <point x="581.295" y="40.9209"/>
      <point x="581.549" y="-17.1582"/>
      <point x="581.804" y="19.7627" type="curve" smooth="no"/>
      <point x="544.212" y="7.07227"/>
      <point x="500.564" y="0"/>
      <point x="451" y="0" type="curve" smooth="yes"/>
      <point x="252.705" y="0"/>
      <point x="149.125" y="113.192"/>
      <point x="149.125" y="246.5" type="curve" smooth="yes"/>
      <point x="149.125" y="379.808"/>
      <point x="252.705" y="493"/>
      <point x="451" y="493" type="curve" smooth="yes"/>
      <point x="593.313" y="493"/>
      <point x="686.842" y="434.697"/>
      <point x="728.308" y="352.5" type="curve" smooth="no"/>
    </contour>
    <contour>
      <point x="581" y="146.5" type="curve" smooth="no"/>
      <point x="581" y="352.5" type="line" smooth="no"/>
      <point x="555.605" y="417.342"/>
      <point x="505.535" y="460.024"/>
      <point x="451" y="460.024" type="curve" smooth="yes"/>
      <point x="369.816" y="460.024"/>
      <point x="303.931" y="365.437"/>
      <point x="303.931" y="243.963" type="curve" smooth="yes"/>
      <point x="303.931" y="122.487"/>
      <point x="369.816" y="26.9004"/>
      <point x="451" y="26.9004" type="curve" smooth="yes"/>
      <point x="508.638" y="26.9004"/>
      <point x="556.888" y="75.0811"/>
    </contour>
  </outline>
</glyph>
<glyph name="h" format="1">
  <advance width="1000"/>
  <unicode hex="0068"/>
  <outline>
    <contour>
      <point x="199" y="26" type="line" smooth="no"/>
      <point x="354" y="26" type="line" smooth="no"/>
      <point x="353.559" y="111.006"/>
      <point x="353" y="159.993"/>
      <point x="353" y="245" type="curve" smooth="yes"/>
      <point x="353" y="366.474"/>
      <point x="418.754" y="460.024"/>
      <point x="499.938" y="460.024" type="curve" smooth="yes"/>
      <point x="581.121" y="460.024"/>
      <point x="647.007" y="365.437"/>
      <point x="647.007" y="243.963" type="curve" smooth="yes"/>
      <point x="647.938" y="26" type="line" smooth="no"/>
      <point x="801.938" y="26" type="line" smooth="no"/>
      <point x="801.938" y="246.5" type="line" smooth="yes"/>
      <point x="801.938" y="379.808"/>
      <point x="698.232" y="493"/>
      <point x="499.938" y="493" type="curve" smooth="no"/>
      <point x="442" y="493"/>
      <point x="388.419" y="452.995"/>
      <point x="353" y="399.89" type="curve" smooth="no"/>
      <point x="353" y="801.1" type="line" smooth="no"/>
      <point x="199" y="801.1" type="line" smooth="no"/>
    </contour>
  </outline>
</glyph>
<glyph name="i" format="1">
  <advance width="465"/>
  <unicode hex="0069"/>
  <outline>
    <contour>
      <point x="228.788" y="849.968" type="line" smooth="no"/>
      <point x="333.439" y="745.315" type="line" smooth="no"/>
      <point x="230.202" y="642.078" type="line" smooth="no"/>
      <point x="125.55" y="746.73" type="line" smooth="no"/>
    </contour>
    <contour>
      <point x="161" y="0" type="line" smooth="no"/>
      <point x="161" y="467" type="line" smooth="no"/>
      <point x="309" y="467" type="line" smooth="no"/>
      <point x="309" y="-1" type="line" smooth="no"/>
    </contour>
  </outline>
</glyph>
<glyph name="j" format="1">
  <advance width="465"/>
  <unicode hex="006a"/>
  <outline>
    <contour>
      <point x="160" y="491.903" type="line" smooth="no"/>
      <point x="308" y="491.903" type="line" smooth="no"/>
      <point x="307.696" y="32.9033" type="line" smooth="no"/>
      <point x="260.583" y="-57.9659"/>
      <point x="126.496" y="-202.807"/>
      <point x="-24" y="-198.097" type="curve" smooth="no"/>
      <point x="-131" y="-198.096" type="line" smooth="no"/>
      <point x="-131" y="-172.097" type="line" smooth="no"/>
      <point x="-24" y="-172.097" type="line" smooth="no"/>
      <point x="59.7432" y="-172.097"/>
      <point x="131.237" y="-86.2373"/>
      <point x="159.041" y="32.9033" type="curve" smooth="no"/>
    </contour>
    <contour>
      <point x="228.788" y="849.968" type="line" smooth="no"/>
      <point x="333.439" y="745.315" type="line" smooth="no"/>
      <point x="230.202" y="642.078" type="line" smooth="no"/>
      <point x="125.55" y="746.73" type="line" smooth="no"/>
    </contour>
  </outline>
</glyph>
<glyph name="k" format="1">
  <advance width="746"/>
  <unicode hex="006b"/>
  <outline>
    <contour>
      <point x="379.73" y="241" type="curve" smooth="no"/>
      <point x="621.792" y="469" type="line" smooth="no"/>
      <point x="469.792" y="469" type="line" smooth="no"/>
      <point x="306" y="296.797" type="line" smooth="no"/>
      <point x="306" y="801" type="line" smooth="no"/>
      <point x="164" y="801" type="line" smooth="no"/>
      <point x="164" y="-0.000976562" type="line" smooth="no"/>
      <point x="306" y="-0.000976562" type="line" smooth="no"/>
      <point x="306" y="195.985" type="line" smooth="no"/>
      <point x="469.792" y="2.78223" type="line" smooth="no"/>
      <point x="621.792" y="2.78223" type="line" smooth="no"/>
      <point x="623" y="1"/>
      <point x="373.328" y="244"/>
    </contour>
  </outline>
</glyph>
<glyph name="l" format="1">
  <advance width="699"/>
  <unicode hex="006c"/>
  <outline>
    <contour>
      <point x="161" y="1.84863" type="line" smooth="no"/>
      <point x="161" y="802.5" type="line" smooth="no"/>
      <point x="210.107" y="802.725"/>
      <point x="259" y="804.5"/>
      <point x="309" y="802.5" type="curve" smooth="no"/>
      <point x="309" y="27.8486" type="line" smooth="no"/>
      <point x="585" y="25.999" type="line" smooth="no"/>
      <point x="585" y="-0.000976562" type="line" smooth="no"/>
    </contour>
  </outline>
</glyph>
<glyph name="m" format="1">
  <advance width="1242"/>
  <unicode hex="006d"/>
  <outline>
    <contour>
      <point x="459.38" y="493" type="line" smooth="yes"/>
      <point x="402.649" y="493"/>
      <point x="345.911" y="452"/>
      <point x="312.442" y="404" type="curve" smooth="no"/>
      <point x="312.442" y="500" type="line" smooth="no"/>
      <point x="158.442" y="500" type="line" smooth="no"/>
      <point x="158.442" y="0" type="line" smooth="no"/>
      <point x="313.442" y="0" type="line" smooth="no"/>
      <point x="313.001" y="85.0059"/>
      <point x="312.442" y="159.993"/>
      <point x="312.442" y="245" type="curve" smooth="yes"/>
      <point x="312.442" y="366.474"/>
      <point x="378.196" y="460.024"/>
      <point x="459.38" y="460.024" type="curve" smooth="yes"/>
      <point x="540.563" y="460.024"/>
      <point x="605.985" y="365.436"/>
      <point x="606.449" y="243.963" type="curve" smooth="yes"/>
      <point x="606.449" y="243.963"/>
      <point x="607.017" y="85.0059"/>
      <point x="607.38" y="0" type="curve" smooth="no"/>
      <point x="761.38" y="0" type="line" smooth="no"/>
      <point x="761.38" y="246.5" type="line" smooth="yes"/>
      <point x="761.38" y="336.769"/>
      <point x="713.829" y="417.813"/>
      <point x="621.558" y="460.735" type="curve" smooth="no"/>
      <point x="684.492" y="460.393"/>
      <point x="747.463" y="460.024"/>
      <point x="811.38" y="460.024" type="curve" smooth="yes"/>
      <point x="892.563" y="460.024"/>
      <point x="957.985" y="365.436"/>
      <point x="958.449" y="243.963" type="curve" smooth="yes"/>
      <point x="958.449" y="243.963"/>
      <point x="959.017" y="85.0059"/>
      <point x="959.38" y="0" type="curve" smooth="no"/>
      <point x="1113.38" y="0" type="line" smooth="no"/>
      <point x="1113.38" y="246.5" type="line" smooth="yes"/>
      <point x="1113.38" y="379.808"/>
      <point x="1009.67" y="493"/>
      <point x="811.38" y="493" type="curve" smooth="yes"/>
    </contour>
  </outline>
</glyph>
<glyph name="n" format="1">
  <advance width="1000"/>
  <unicode hex="006e"/>
  <outline>
    <contour>
      <point x="199" y="0" type="line" smooth="no"/>
      <point x="354" y="0" type="line" smooth="no"/>
      <point x="353.559" y="85.0059"/>
      <point x="353" y="159.993"/>
      <point x="353" y="245" type="curve" smooth="yes"/>
      <point x="353" y="366.474"/>
      <point x="418.754" y="460.024"/>
      <point x="499.938" y="460.024" type="curve" smooth="yes"/>
      <point x="581.121" y="460.024"/>
      <point x="646.543" y="365.436"/>
      <point x="647.007" y="243.963" type="curve" smooth="yes"/>
      <point x="647.007" y="243.963"/>
      <point x="647.574" y="85.0059"/>
      <point x="647.938" y="0" type="curve" smooth="no"/>
      <point x="801.938" y="0" type="line" smooth="no"/>
      <point x="801.938" y="246.5" type="line" smooth="yes"/>
      <point x="801.938" y="379.808"/>
      <point x="698.232" y="493"/>
      <point x="499.938" y="493" type="curve" smooth="yes"/>
      <point x="443.207" y="493"/>
      <point x="380" y="436"/>
      <point x="353" y="396" type="curve" smooth="no"/>
      <point x="353" y="500" type="line" smooth="no"/>
      <point x="199" y="500" type="line" smooth="no"/>
    </contour>
  </outline>
</glyph>
<glyph name="o" format="1">
  <advance width="1000"/>
  <unicode hex="006f"/>
  <outline>
    <contour>
      <point x="204.125" y="246.5" type="curve" smooth="yes"/>
      <point x="204.125" y="379.808"/>
      <point x="307.705" y="493"/>
      <point x="506" y="493" type="curve" smooth="yes"/>
      <point x="704.295" y="493"/>
      <point x="807.875" y="379.808"/>
      <point x="807.875" y="246.5" type="curve" smooth="yes"/>
      <point x="807.875" y="113.192"/>
      <point x="704.295" y="0"/>
      <point x="506" y="0" type="curve" smooth="yes"/>
      <point x="307.705" y="0"/>
      <point x="204.125" y="113.192"/>
    </contour>
    <contour>
      <point x="358.931" y="243.963" type="curve" smooth="yes"/>
      <point x="358.931" y="122.487"/>
      <point x="424.816" y="26.9004"/>
      <point x="506" y="26.9004" type="curve" smooth="yes"/>
      <point x="587.184" y="26.9004"/>
      <point x="653.069" y="122.487"/>
      <point x="653.069" y="243.963" type="curve" smooth="yes"/>
      <point x="653.069" y="365.437"/>
      <point x="587.184" y="460.024"/>
      <point x="506" y="460.024" type="curve" smooth="yes"/>
      <point x="424.816" y="460.024"/>
      <point x="358.931" y="365.437"/>
    </contour>
  </outline>
</glyph>
<glyph name="p" format="1">
  <advance width="1000"/>
  <unicode hex="0070"/>
  <outline>
    <contour>
      <point x="646.132" y="249.286" type="curve" smooth="yes"/>
      <point x="646.132" y="370.762"/>
      <point x="580.246" y="466.349"/>
      <point x="499.062" y="466.349" type="curve" smooth="yes"/>
      <point x="417.879" y="466.349"/>
      <point x="351.993" y="370.762"/>
      <point x="351.993" y="249.286" type="curve" smooth="yes"/>
      <point x="351.993" y="127.812"/>
      <point x="417.879" y="33.2246"/>
      <point x="499.062" y="33.2246" type="curve" smooth="yes"/>
      <point x="580.246" y="33.2246"/>
      <point x="646.132" y="127.812"/>
    </contour>
    <contour>
      <point x="199.062" y="493.249" type="line" smooth="no"/>
      <point x="351.993" y="493.249" type="line" smooth="no"/>
      <point x="351.993" y="412.268" type="line" smooth="no"/>
      <point x="386" y="454.268"/>
      <point x="442.174" y="493.249"/>
      <point x="499.062" y="493.249" type="curve" smooth="yes"/>
      <point x="697.357" y="493.249"/>
      <point x="800.938" y="380.057"/>
      <point x="800.938" y="246.749" type="curve" smooth="yes"/>
      <point x="800.938" y="113.441"/>
      <point x="697.357" y="0.249023"/>
      <point x="499.062" y="0.249023" type="curve" smooth="yes"/>
      <point x="442.174" y="0.249023"/>
      <point x="388" y="38.2676"/>
      <point x="351.993" y="90.2676" type="curve" smooth="no"/>
      <point x="351.993" y="-196.714" type="line" smooth="no"/>
      <point x="199.062" y="-196.714" type="line" smooth="no"/>
    </contour>
  </outline>
</glyph>
<glyph name="q" format="1">
  <advance width="1000"/>
  <unicode hex="0071"/>
  <outline>
    <contour>
      <point x="353.868" y="249.286" type="curve" smooth="yes"/>
      <point x="353.868" y="370.762"/>
      <point x="419.754" y="466.349"/>
      <point x="500.938" y="466.349" type="curve" smooth="yes"/>
      <point x="582.121" y="466.349"/>
      <point x="648.007" y="370.762"/>
      <point x="648.007" y="249.286" type="curve" smooth="yes"/>
      <point x="648.007" y="127.812"/>
      <point x="582.121" y="33.2246"/>
      <point x="500.938" y="33.2246" type="curve" smooth="yes"/>
      <point x="419.754" y="33.2246"/>
      <point x="353.868" y="127.812"/>
    </contour>
    <contour>
      <point x="800.938" y="493.249" type="line" smooth="no"/>
      <point x="648.007" y="493.249" type="line" smooth="no"/>
      <point x="648.007" y="410.268" type="line" smooth="no"/>
      <point x="620" y="452.268"/>
      <point x="557.826" y="493.249"/>
      <point x="500.938" y="493.249" type="curve" smooth="yes"/>
      <point x="302.643" y="493.249"/>
      <point x="199.062" y="380.057"/>
      <point x="199.062" y="246.749" type="curve" smooth="yes"/>
      <point x="199.062" y="113.441"/>
      <point x="302.643" y="0.249023"/>
      <point x="500.938" y="0.249023" type="curve" smooth="yes"/>
      <point x="557.826" y="0.249023"/>
      <point x="616" y="40.2676"/>
      <point x="648.007" y="80.2676" type="curve" smooth="no"/>
      <point x="648.007" y="-196.714" type="line" smooth="no"/>
      <point x="800.938" y="-196.714" type="line" smooth="no"/>
    </contour>
  </outline>
</glyph>
<glyph name="r" format="1">
  <advance width="703"/>
  <unicode hex="0072"/>
  <outline>
    <contour>
      <point x="552.7" y="355.9" type="curve" smooth="yes"/>
      <point x="412.7" y="351.9"/>
      <point x="353" y="366.474"/>
      <point x="353" y="245" type="curve" smooth="yes"/>
      <point x="353" y="159.993"/>
      <point x="353.559" y="85.0059"/>
      <point x="354" y="0" type="curve" smooth="no"/>
      <point x="199" y="0" type="line" smooth="no"/>
      <point x="199" y="500" type="line" smooth="no"/>
      <point x="353" y="500" type="line" smooth="no"/>
      <point x="353" y="365.899" type="line" smooth="no"/>
      <point x="405.7" y="455.9"/>
      <point x="426" y="493"/>
      <point x="558" y="501" type="curve" smooth="no"/>
      <point x="559.002" y="500.984"/>
      <point x="559.908" y="356.106"/>
    </contour>
  </outline>
</glyph>
<glyph name="s" format="1">
  <advance width="690"/>
  <unicode hex="0073"/>
  <outline>
    <contour>
      <point x="269.325" y="408.92" type="curve" smooth="no"/>
      <point x="269.325" y="452.734"/>
      <point x="284.289" y="466.63"/>
      <point x="354.757" y="466.917" type="curve" smooth="no"/>
      <point x="407.445" y="466.917"/>
      <point x="437.2" y="429.385"/>
      <point x="456.421" y="364.289" type="curve" smooth="no"/>
      <point x="550" y="364.288" type="line" smooth="no"/>
      <point x="518.658" y="440.42"/>
      <point x="451.579" y="486.613"/>
      <point x="354.757" y="486.613" type="curve" smooth="yes"/>
      <point x="231.004" y="486.613"/>
      <point x="159.964" y="430.613"/>
      <point x="159.964" y="356.677" type="curve" smooth="no"/>
      <point x="159.964" y="192.373"/>
      <point x="453.325" y="171.501"/>
      <point x="453.325" y="91.9199" type="curve" smooth="no"/>
      <point x="453.325" y="37.1514"/>
      <point x="425.45" y="27.9355"/>
      <point x="355.529" y="27.5264" type="curve" smooth="no"/>
      <point x="301.111" y="27.5264"/>
      <point x="254.325" y="27"/>
      <point x="184.325" y="27" type="curve" smooth="no"/>
      <point x="185.325" y="1" type="line" smooth="no"/>
      <point x="355.529" y="1" type="line" smooth="no"/>
      <point x="521.325" y="1"/>
      <point x="569.971" y="61.2451"/>
      <point x="569.971" y="135.182" type="curve" smooth="no"/>
      <point x="569.971" y="270.732"/>
      <point x="269.363" y="285.847"/>
    </contour>
  </outline>
</glyph>
<glyph name="t" format="1">
  <advance width="645"/>
  <unicode hex="0074"/>
  <outline>
    <contour>
      <point x="461.99" y="505" type="line" smooth="no"/>
      <point x="312.922" y="505" type="line" smooth="yes"/>
      <point x="312" y="661" type="line" smooth="no"/>
      <point x="268" y="661" type="line" smooth="no"/>
      <point x="102" y="497" type="line" smooth="no"/>
      <point x="106" y="467" type="line" smooth="no"/>
      <point x="159.992" y="467" type="line" smooth="no"/>
      <point x="159.993" y="146.463" type="line" smooth="yes"/>
      <point x="159.993" y="13.1553"/>
      <point x="263.697" y="0"/>
      <point x="461.992" y="0" type="curve" smooth="yes"/>
      <point x="494" y="0" type="line" smooth="no"/>
      <point x="494" y="33.9004" type="line" smooth="no"/>
      <point x="461.992" y="33.9756" type="line" smooth="yes"/>
      <point x="380.809" y="33.9756"/>
      <point x="315.224" y="27.5273"/>
      <point x="314.923" y="149" type="curve" smooth="yes"/>
      <point x="314.923" y="149"/>
      <point x="314.664" y="400.935"/>
      <point x="314.387" y="466" type="curve" smooth="no"/>
      <point x="461.99" y="466" type="line" smooth="no"/>
    </contour>
  </outline>
</glyph>
<glyph name="u" format="1">
  <advance width="1000"/>
  <unicode hex="0075"/>
  <outline>
    <contour>
      <point x="801.469" y="474" type="line" smooth="no"/>
      <point x="646.469" y="474" type="line" smooth="no"/>
      <point x="646.91" y="388.994"/>
      <point x="647.469" y="310.007"/>
      <point x="647.469" y="225" type="curve" smooth="yes"/>
      <point x="647.469" y="103.526"/>
      <point x="581.715" y="9.97559"/>
      <point x="500.531" y="9.97559" type="curve" smooth="yes"/>
      <point x="419.348" y="9.97559"/>
      <point x="353.462" y="104.563"/>
      <point x="353.462" y="226.037" type="curve" smooth="yes"/>
      <point x="353.462" y="226.037"/>
      <point x="352.895" y="388.994"/>
      <point x="352.531" y="474" type="curve" smooth="no"/>
      <point x="198.531" y="474" type="line" smooth="no"/>
      <point x="198.531" y="223.5" type="line" smooth="yes"/>
      <point x="198.531" y="90.1924"/>
      <point x="302.236" y="-23"/>
      <point x="500.531" y="-23" type="curve" smooth="yes"/>
      <point x="557.262" y="-23"/>
      <point x="610" y="17"/>
      <point x="647.469" y="57" type="curve" smooth="no"/>
      <point x="647.469" y="0" type="line" smooth="no"/>
      <point x="801.469" y="0" type="line" smooth="no"/>
    </contour>
  </outline>
</glyph>
<glyph name="v" format="1">
  <advance width="664"/>
  <unicode hex="0076"/>
  <outline>
    <contour>
      <point x="229.792" y="466.999" type="line" smooth="no"/>
      <point x="87.792" y="466.999" type="line" smooth="no"/>
      <point x="264" y="0" type="line" smooth="no"/>
      <point x="265.584" y="0" type="line" smooth="no"/>
      <point x="406" y="0" type="line" smooth="no"/>
      <point x="407.584" y="0" type="line" smooth="no"/>
      <point x="577.792" y="466.999" type="line" smooth="no"/>
      <point x="435.792" y="466.999" type="line" smooth="no"/>
      <point x="339.792" y="34.25" type="line" smooth="no"/>
    </contour>
  </outline>
</glyph>
<glyph name="w" format="1">
  <advance width="1055"/>
  <unicode hex="0077"/>
  <outline>
    <contour>
      <point x="229.792" y="466.999" type="line" smooth="no"/>
      <point x="87.792" y="466.999" type="line" smooth="no"/>
      <point x="264" y="0" type="line" smooth="no"/>
      <point x="265.584" y="0" type="line" smooth="no"/>
      <point x="416" y="0" type="line" smooth="no"/>
      <point x="417.584" y="0" type="line" smooth="no"/>
      <point x="509.106" y="340.5" type="line" smooth="no"/>
      <point x="604.208" y="0" type="line" smooth="no"/>
      <point x="605.792" y="0" type="line" smooth="no"/>
      <point x="756.208" y="0" type="line" smooth="no"/>
      <point x="757.792" y="0" type="line" smooth="no"/>
      <point x="928" y="466.999" type="line" smooth="no"/>
      <point x="786" y="466.999" type="line" smooth="no"/>
      <point x="690" y="34.25" type="line" smooth="no"/>
      <point x="580" y="466.999" type="line" smooth="no"/>
      <point x="577.792" y="466.999" type="line" smooth="no"/>
      <point x="438" y="466.999" type="line" smooth="no"/>
      <point x="435.792" y="466.999" type="line" smooth="no"/>
      <point x="339.792" y="34.25" type="line" smooth="no"/>
    </contour>
  </outline>
</glyph>
<glyph name="x" format="1">
  <advance width="747"/>
  <unicode hex="0078"/>
  <outline>
    <contour>
      <point x="232.208" y="468" type="line" smooth="no"/>
      <point x="364" y="286.797" type="line" smooth="no"/>
      <point x="487.792" y="468" type="line" smooth="no"/>
      <point x="629.792" y="468" type="line" smooth="no"/>
      <point x="441.73" y="231" type="line" smooth="yes"/>
      <point x="441.569" y="230.796"/>
      <point x="441.751" y="231.261"/>
      <point x="441.73" y="231" type="curve" smooth="yes"/>
      <point x="441.792" y="231" type="line" smooth="no"/>
      <point x="435.39" y="234"/>
      <point x="631" y="1"/>
      <point x="629.792" y="2.78223" type="curve" smooth="no"/>
      <point x="487.792" y="2.78223" type="line" smooth="no"/>
      <point x="364" y="185.985" type="line" smooth="no"/>
      <point x="232.208" y="2.78223" type="line" smooth="no"/>
      <point x="90.208" y="2.78223" type="line" smooth="no"/>
      <point x="292.277" y="231" type="line" smooth="no"/>
      <point x="90.208" y="468" type="line" smooth="no"/>
    </contour>
  </outline>
</glyph>
<glyph name="y" format="1">
  <advance width="664"/>
  <unicode hex="0079"/>
  <outline>
    <contour>
      <point x="229.792" y="466.999" type="line" smooth="no"/>
      <point x="87.792" y="466.999" type="line" smooth="no"/>
      <point x="253" y="0" type="line" smooth="no"/>
      <point x="254.584" y="0" type="line" smooth="no"/>
      <point x="286.6" y="0" type="line" smooth="no"/>
      <point x="186.6" y="-198.7" type="line" smooth="no"/>
      <point x="319.6" y="-198.7" type="line" smooth="no"/>
      <point x="577.792" y="466.999" type="line" smooth="no"/>
      <point x="435.792" y="466.999" type="line" smooth="no"/>
      <point x="328.792" y="34.25" type="line" smooth="no"/>
    </contour>
  </outline>
</glyph>
<glyph name="z" format="1">
  <advance width="620"/>
  <unicode hex="007a"/>
  <outline>
    <contour>
      <point x="332.138" y="441" type="line" smooth="no"/>
      <point x="99.2061" y="441" type="line" smooth="no"/>
      <point x="99.2061" y="468" type="line" smooth="no"/>
      <point x="488.999" y="468" type="line" smooth="no"/>
      <point x="262.5" y="26" type="line" smooth="no"/>
      <point x="480" y="25.999" type="line" smooth="no"/>
      <point x="480" y="0" type="line" smooth="no"/>
      <point x="88" y="0" type="line" smooth="no"/>
    </contour>
  </outline>
</glyph>
<glyph name="guillemotleft" format="1">
  <advance width="1000"/>
  <unicode hex="00ab"/>
  <outline>
    <contour>
      <point x="712" y="690" type="line" smooth="no"/>
      <point x="349" y="345" type="line" smooth="no"/>
      <point x="712" y="26" type="line" smooth="no"/>
      <point x="712" y="150" type="line" smooth="no"/>
      <point x="384" y="340.5" type="line" smooth="no"/>
      <point x="712" y="596" type="line" smooth="no"/>
    </contour>
    <contour>
      <point x="522" y="690" type="line" smooth="no"/>
      <point x="159" y="345" type="line" smooth="no"/>
      <point x="522" y="26" type="line" smooth="no"/>
      <point x="522" y="150" type="line" smooth="no"/>
      <point x="194" y="340.5" type="line" smooth="no"/>
      <point x="522" y="596" type="line" smooth="no"/>
    </contour>
  </outline>
</glyph>
<glyph name="acutecomb" format="1">
  <advance width="1000"/>
  <unicode hex="0301"/>
  <outline>
    <contour>
      <point x="569" y="779" type="line" smooth="no"/>
      <point x="569" y="716" type="line" smooth="no"/>
      <point x="430" y="716" type="line" smooth="no"/>
      <point x="430" y="743" type="line" smooth="no"/>
    </contour>
  </outline>
</glyph>
<glyph name="uni0302" format="1">
  <advance width="1000"/>
  <unicode hex="0302"/>
  <outline>
    <contour>
      <point x="453" y="743" type="line" smooth="no"/>
      <point x="522.5" y="768" type="line" smooth="no"/>
      <point x="592" y="743" type="line" smooth="no"/>
      <point x="592" y="716" type="line" smooth="no"/>
      <point x="453" y="716" type="line" smooth="no"/>
    </contour>
  </outline>
</glyph>
<glyph name="dotbelowcomb" format="1">
  <advance width="1000"/>
  <unicode hex="0323"/>
  <outline>
    <contour>
      <point x="422" y="-102" type="curve" smooth="yes"/>
      <point x="422" y="-58.9443"/>
      <point x="456.944" y="-24"/>
      <point x="500" y="-24" type="curve" smooth="yes"/>
      <point x="543.056" y="-24"/>
      <point x="578" y="-58.9443"/>
      <point x="578" y="-102" type="curve" smooth="yes"/>
      <point x="578" y="-145.056"/>
      <point x="543.056" y="-180"/>
      <point x="500" y="-180" type="curve" smooth="yes"/>
      <point x="456.944" y="-180"/>
      <point x="422" y="-145.056"/>
    </contour>
  </outline>
</glyph>
